<svg width="189" height="107" viewBox="0 0 189 107" fill="none" xmlns="http://www.w3.org/2000/svg">
<rect width="189" height="106.364" rx="12" fill="#242424"/>
<rect x="30.3008" y="24" width="58.3636" height="58.3636" rx="7.29545" fill="black"/>
<mask id="mask0_10_220" style="mask-type:alpha" maskUnits="userSpaceOnUse" x="44" y="36" width="29" height="34">
<mask id="mask1_10_220" style="mask-type:luminance" maskUnits="userSpaceOnUse" x="44" y="36" width="29" height="34">
<path d="M72.7938 36.7668H44.8887V69.0999H72.7938V36.7668Z" fill="white"/>
</mask>
<g mask="url(#mask1_10_220)">
<path d="M44.5664 69.1011V36.7681H61.8751C68.33 36.7824 70.8358 40.4704 71.7451 42.6897C72.5311 44.5751 72.6281 46.6759 72.0195 48.6256C71.4708 50.315 70.4421 51.8092 69.058 52.9263C70.4423 54.0434 71.471 55.5376 72.0195 57.2272C72.6253 59.171 72.5341 61.2646 71.7617 63.1488C70.8502 65.3598 68.3446 69.0702 61.8916 69.0868L44.5664 69.1011Z" fill="#8B61D0"/>
</g>
</mask>
<g mask="url(#mask0_10_220)">
<rect x="-328.963" y="-170.973" width="775.994" height="442.155" fill="#007CE2"/>
</g>
<mask id="mask2_10_220" style="mask-type:alpha" maskUnits="userSpaceOnUse" x="44" y="51" width="21" height="19">
<rect x="44.8887" y="51.54" width="19.6977" height="18.0562" fill="#D9D9D9"/>
</mask>
<g mask="url(#mask2_10_220)">
<path d="M58.3625 69.0878C58.3625 67.4874 58.0365 65.9929 57.3844 64.6045C56.7324 63.2161 55.8433 62.0021 54.717 60.9625C53.5908 59.9229 52.2756 59.1022 50.7715 58.5003C49.2674 57.8984 46.6225 57.5975 44.8887 57.5975V55.1353C46.993 55.1353 49.9824 55.4977 51.8051 56.2227C53.6278 56.9477 55.2283 57.9463 56.6064 59.2184C57.9846 60.4906 59.0664 61.9679 59.8518 63.6504C60.6372 65.3329 61.0299 67.1454 61.0299 69.0878H58.3625ZM53.0961 69.0878C53.0961 68.1713 52.8424 67.3198 52.472 66.5333C52.1015 65.7467 51.5902 65.0525 50.9382 64.4506C50.2862 63.8488 49.5341 63.3768 48.682 63.0349C47.8299 62.6929 45.8815 62.7066 44.8887 62.7066V60.0597C46.252 60.0597 48.5487 60.2956 49.7268 60.7676C50.9049 61.2395 51.9385 61.8858 52.8276 62.7066C53.7167 63.5273 54.4169 64.4814 54.9282 65.5689C55.4394 66.6564 55.6951 67.8293 55.6951 69.0878L53.0961 69.0878Z" fill="#3EC342"/>
</g>
<path d="M114.842 42.0023C111.481 42.0023 109.394 44.797 109.394 50.9877C109.394 57.8506 111.658 59.9731 114.983 59.9731C117.955 59.9731 119.653 58.0628 120.042 54.9852L120.113 54.4191H114.488V49.5727H126.728V64.4304H121.174V60.8929H121.068C119.759 63.3338 117.318 64.9964 113.498 64.9964C105.326 64.9964 101.753 59.1595 101.753 51.483C101.753 42.7099 106.776 36.979 114.842 36.979C121.846 36.979 125.738 40.2336 126.339 46.1059H119.122C118.804 43.7711 117.318 42.0023 114.842 42.0023ZM130.046 50.9877C130.046 42.4976 134.999 36.979 143.206 36.979C151.838 36.979 156.26 42.3207 156.26 50.9877C156.26 59.5132 151.519 64.9964 143.206 64.9964C134.327 64.9964 130.046 59.6194 130.046 50.9877ZM143.171 59.9024C146.744 59.9024 148.477 56.9662 148.477 50.9877C148.477 45.0093 146.284 42.0023 143.171 42.0023C139.598 42.0023 137.864 45.0093 137.864 50.9877C137.864 57.0016 139.421 59.9024 143.171 59.9024Z" fill="white"/>
</svg>
